<?xml version="1.0" encoding="utf-8"?>
<!-- Generator: Adobe Illustrator 16.0.0, SVG Export Plug-In . SVG Version: 6.00 Build 0)  -->
<!DOCTYPE svg PUBLIC "-//W3C//DTD SVG 1.1//EN" "http://www.w3.org/Graphics/SVG/1.1/DTD/svg11.dtd">
<svg version="1.1" id="Layer_1" xmlns="http://www.w3.org/2000/svg" xmlns:xlink="http://www.w3.org/1999/xlink" x="0px" y="0px"
	 width="576px" height="288px" viewBox="0 0 576 288" enable-background="new 0 0 576 288" xml:space="preserve">
<rect x="0" fill="#FFFFFF" width="576" height="288"/>
<linearGradient id="SVGID_1_" gradientUnits="userSpaceOnUse" x1="1801.3672" y1="-2978.6704" x2="1801.3672" y2="-3170.7983" gradientTransform="matrix(-0.7071 0.7071 -0.7071 -0.7071 -346.7839 -3290.3118)">
	<stop  offset="0" style="stop-color:#21B6C5"/>
	<stop  offset="1" style="stop-color:#11EA9E"/>
</linearGradient>
<circle fill="url(#SVGID_1_)" cx="538.011" cy="141.979" r="78"/>
<g>
	<defs>
		<rect id="SVGID_2_" x="302.271" width="576.001" height="288"/>
	</defs>
	<clipPath id="SVGID_3_">
		<use xlink:href="#SVGID_2_"  overflow="visible"/>
	</clipPath>
	<g clip-path="url(#SVGID_3_)">
		<g>
			<path fill="#65BBA0" d="M425.106,83.664c-0.896,0-1.792-0.342-2.476-1.025c-1.366-1.366-1.366-3.583,0-4.949l90.333-90.333
				c1.369-1.367,3.584-1.366,4.951,0s1.367,3.583,0,4.949l-90.334,90.333C426.897,83.322,426.001,83.664,425.106,83.664z"/>
		</g>
		<g>
			<path fill="#65BBA0" d="M278.773,264.998c-0.129,0-0.256-0.049-0.354-0.146c-0.195-0.195-0.195-0.512,0-0.707l129.333-129.334
				c0.195-0.195,0.512-0.195,0.707,0s0.195,0.512,0,0.707L279.127,264.852C279.029,264.949,278.9,264.998,278.773,264.998z"/>
		</g>
		<g>
			<path fill="#FFFFFF" d="M774.106,177.664c-0.129,0-0.256-0.049-0.354-0.146c-0.195-0.195-0.195-0.512,0-0.707l134-134
				c0.195-0.195,0.512-0.195,0.707,0s0.195,0.512,0,0.707l-134,134C774.362,177.615,774.233,177.664,774.106,177.664z"/>
		</g>
		<g>
			<path fill="#FFFFFF" d="M734.772,119.831c-2.559,0-5.117-0.977-7.07-2.929c-3.904-3.905-3.904-10.237,0-14.143l134-134
				c3.904-3.904,10.238-3.904,14.143,0c3.904,3.905,3.904,10.237,0,14.143l-134,134
				C739.892,118.854,737.333,119.831,734.772,119.831z"/>
		</g>
		<g>
			<path fill="#65BBA0" d="M303.439,347.164c-2.559,0-5.119-0.977-7.071-2.929c-3.905-3.905-3.905-10.237,0-14.143l134-134
				c3.905-3.904,10.237-3.904,14.143,0c3.904,3.905,3.904,10.237,0,14.143l-134,134
				C308.559,346.188,305.998,347.164,303.439,347.164z"/>
		</g>
		<g>
			<path fill="#FFFFFF" d="M702.772,317.164c-0.256,0-0.512-0.098-0.707-0.293c-0.391-0.391-0.391-1.023,0-1.414l99.084-99.083
				c0.391-0.391,1.023-0.391,1.414,0s0.391,1.023,0,1.414l-99.082,99.083C703.286,317.066,703.028,317.164,702.772,317.164z"/>
		</g>
		<g>
			<path fill="#FFFFFF" d="M671.772,235.664c-0.895,0-1.791-0.342-2.475-1.025c-1.367-1.366-1.367-3.583,0-4.949l69.666-69.666
				c1.369-1.366,3.584-1.366,4.951,0s1.367,3.583,0,4.949l-69.666,69.666C673.565,235.322,672.669,235.664,671.772,235.664z"/>
		</g>
		<g>
			<path fill="#65BBA0" d="M512.772,49.498c-0.127,0-0.256-0.049-0.354-0.146c-0.195-0.195-0.195-0.512,0-0.707l31.668-31.667
				c0.195-0.195,0.512-0.195,0.707,0s0.195,0.512,0,0.707l-31.668,31.667C513.028,49.449,512.901,49.498,512.772,49.498z"/>
		</g>
		<g>
			<path fill="#65BBA0" d="M313.439,132.998c-0.128,0-0.256-0.049-0.354-0.146c-0.195-0.195-0.195-0.512,0-0.707L416.419,28.811
				c0.195-0.195,0.512-0.195,0.707,0s0.195,0.512,0,0.707L313.793,132.852C313.695,132.949,313.567,132.998,313.439,132.998z"/>
		</g>
	</g>
</g>
</svg>
